<svg xmlns="http://www.w3.org/2000/svg" xmlns:xlink="http://www.w3.org/1999/xlink" contentStyleType="text/css" height="305px" preserveAspectRatio="none" style="width:342px;height:305px;background:#FFFFFF;" version="1.1" viewBox="0 0 342 305" width="342px" zoomAndPan="magnify"><defs/><g><!--entity Car--><g id="elem_Car"><rect fill="#F1F1F1" height="46.2969" rx="2.5" ry="2.5" style="stroke:#181818;stroke-width:0.5;" width="64.1104" x="143.34" y="130.3"/><rect fill="#F1F1F1" height="10" style="stroke:#181818;stroke-width:0.5;" width="15" x="187.4504" y="135.3"/><rect fill="#F1F1F1" height="2" style="stroke:#181818;stroke-width:0.5;" width="4" x="185.4504" y="137.3"/><rect fill="#F1F1F1" height="2" style="stroke:#181818;stroke-width:0.5;" width="4" x="185.4504" y="141.3"/><text fill="#000000" font-family="sans-serif" font-size="14" lengthAdjust="spacing" textLength="24.1104" x="158.34" y="163.2951">Car</text></g><!--entity Control system--><g id="elem_Control system"><rect fill="#F1F1F1" height="46.2969" rx="2.5" ry="2.5" style="stroke:#181818;stroke-width:0.5;" width="145.9775" x="27.4" y="253.59"/><rect fill="#F1F1F1" height="10" style="stroke:#181818;stroke-width:0.5;" width="15" x="153.3775" y="258.59"/><rect fill="#F1F1F1" height="2" style="stroke:#181818;stroke-width:0.5;" width="4" x="151.3775" y="260.59"/><rect fill="#F1F1F1" height="2" style="stroke:#181818;stroke-width:0.5;" width="4" x="151.3775" y="264.59"/><text fill="#000000" font-family="sans-serif" font-size="14" lengthAdjust="spacing" textLength="105.9775" x="42.4" y="286.5851">Control system</text></g><!--entity Call pad--><g id="elem_Call pad"><rect fill="#F1F1F1" height="46.2969" rx="2.5" ry="2.5" style="stroke:#181818;stroke-width:0.5;" width="96.9365" x="10.92" y="130.3"/><rect fill="#F1F1F1" height="10" style="stroke:#181818;stroke-width:0.5;" width="15" x="87.8565" y="135.3"/><rect fill="#F1F1F1" height="2" style="stroke:#181818;stroke-width:0.5;" width="4" x="85.8565" y="137.3"/><rect fill="#F1F1F1" height="2" style="stroke:#181818;stroke-width:0.5;" width="4" x="85.8565" y="141.3"/><text fill="#000000" font-family="sans-serif" font-size="14" lengthAdjust="spacing" textLength="56.9365" x="25.92" y="163.2951">Call pad</text></g><!--entity Internal controls--><g id="elem_Internal controls"><rect fill="#F1F1F1" height="46.2969" rx="2.5" ry="2.5" style="stroke:#181818;stroke-width:0.5;" width="154.7822" x="7" y="7"/><rect fill="#F1F1F1" height="10" style="stroke:#181818;stroke-width:0.5;" width="15" x="141.7822" y="12"/><rect fill="#F1F1F1" height="2" style="stroke:#181818;stroke-width:0.5;" width="4" x="139.7822" y="14"/><rect fill="#F1F1F1" height="2" style="stroke:#181818;stroke-width:0.5;" width="4" x="139.7822" y="18"/><text fill="#000000" font-family="sans-serif" font-size="14" lengthAdjust="spacing" textLength="114.7822" x="22" y="39.9951">Internal controls</text></g><!--entity Safety system--><g id="elem_Safety system"><rect fill="#F1F1F1" height="46.2969" rx="2.5" ry="2.5" style="stroke:#181818;stroke-width:0.5;" width="139.8457" x="196.47" y="7"/><rect fill="#F1F1F1" height="10" style="stroke:#181818;stroke-width:0.5;" width="15" x="316.3157" y="12"/><rect fill="#F1F1F1" height="2" style="stroke:#181818;stroke-width:0.5;" width="4" x="314.3157" y="14"/><rect fill="#F1F1F1" height="2" style="stroke:#181818;stroke-width:0.5;" width="4" x="314.3157" y="18"/><text fill="#000000" font-family="sans-serif" font-size="14" lengthAdjust="spacing" textLength="99.8457" x="211.47" y="39.9951">Safety system</text></g><!--link Car to Control system--><g id="link_Car_Control system"><path d="M161.46,176.98 C147.99,198.76 130.8451,226.4865 117.4051,248.2265 " fill="none" id="Car-to-Control system" style="stroke:#181818;stroke-width:1.0;"/><polygon fill="#181818" points="114.25,253.33,122.3849,247.7781,116.8792,249.0771,115.5803,243.5714,114.25,253.33" style="stroke:#181818;stroke-width:1.0;"/><text fill="#000000" font-family="sans-serif" font-size="13" lengthAdjust="spacing" textLength="41.2217" x="142.39" y="219.6569">TCP-IP</text></g><!--link Call pad to Control system--><g id="link_Call pad_Control system"><path d="M61.85,177.01 C63.79,190.75 67.07,208.5 72.39,223.59 C75.98,233.77 78.3877,239.1466 83.4577,248.1166 " fill="none" id="Call pad-to-Control system" style="stroke:#181818;stroke-width:1.0;"/><polygon fill="#181818" points="86.41,253.34,85.4637,243.5367,83.9497,248.9872,78.4992,247.4732,86.41,253.34" style="stroke:#181818;stroke-width:1.0;"/><text fill="#000000" font-family="sans-serif" font-size="13" lengthAdjust="spacing" textLength="41.2217" x="73.39" y="219.6569">TCP-IP</text></g><!--link Internal controls to Car--><g id="link_Internal controls_Car"><path d="M104.8911,58.4792 C121.2411,80.2692 138.6579,103.4916 154.9779,125.2316 " fill="none" id="Internal controls-Car" style="stroke:#181818;stroke-width:1.0;"/><polygon fill="#181818" points="101.29,53.68,103.4921,63.2795,104.2909,57.6793,109.8911,58.4781,101.29,53.68" style="stroke:#181818;stroke-width:1.0;"/><polygon fill="#181818" points="158.58,130.03,156.3758,120.431,155.5782,126.0313,149.9779,125.2338,158.58,130.03" style="stroke:#181818;stroke-width:1.0;"/><text fill="#000000" font-family="sans-serif" font-size="13" lengthAdjust="spacing" textLength="83.5098" x="136.39" y="96.3669">Shared mem</text></g><!--link Safety system to Car--><g id="link_Safety system_Car"><path d="M252.9771,58.9266 C245.8371,72.9466 238.47,85.69 227.39,100.3 C219.51,110.69 213.9667,116.9024 204.9567,125.6424 " fill="none" id="Safety system-Car" style="stroke:#181818;stroke-width:1.0;"/><polygon fill="#181818" points="255.7,53.58,248.0513,59.7846,253.4309,58.0355,255.1801,63.4151,255.7,53.58" style="stroke:#181818;stroke-width:1.0;"/><polygon fill="#181818" points="200.65,129.82,209.8951,126.4247,204.2389,126.3386,204.3249,120.6824,200.65,129.82" style="stroke:#181818;stroke-width:1.0;"/><text fill="#000000" font-family="sans-serif" font-size="13" lengthAdjust="spacing" textLength="83.5098" x="239.39" y="96.3669">Shared mem</text></g><!--SRC=[YtPEB8fLqDMrKuXspiyhAShFKIYkB2v9pOrLi588SGxGzGpWYdPEpCbHA4XC8QZGCwyajIWlCKSX6QAaE5R11g85P8kLGd16Ob5gYa9kQYvNT71YMcf99TmG7Ee0]--></g></svg>